{
 "cells": [
  {
   "cell_type": "code",
   "execution_count": 24,
   "metadata": {},
   "outputs": [],
   "source": [
    "# Split into 5000 tick images with 1000 tick shift\n",
    "import mido\n",
    "from utils import mido_setup, get_track_instrument_type\n",
    "import os\n",
    "import pandas\n",
    "from collections import Counter\n",
    "from matplotlib import pyplot as plt"
   ]
  },
  {
   "cell_type": "code",
   "execution_count": 2,
   "metadata": {},
   "outputs": [],
   "source": [
    "initial_path = \"/Users/edlgg/repos/dissertation/midis/clean_songs_0_vels/\"\n",
    "images_path = \"/Users/edlgg/repos/dissertation/images/v1\"\n",
    "images_out_path = \"/Users/edlgg/repos/dissertation/results/images/v1\"\n",
    "midi_out_path = \"/Users/edlgg/repos/dissertation/results/midis/v1\""
   ]
  },
  {
   "cell_type": "code",
   "execution_count": 6,
   "metadata": {},
   "outputs": [],
   "source": [
    "mid = mido.MidiFile(path + \"Erin_Shore.mid\")"
   ]
  },
  {
   "cell_type": "code",
   "execution_count": 7,
   "metadata": {},
   "outputs": [
    {
     "data": {
      "text/plain": [
       "<message note_on channel=4 note=50 velocity=108 time=12157>"
      ]
     },
     "execution_count": 7,
     "metadata": {},
     "output_type": "execute_result"
    }
   ],
   "source": [
    "mid.tracks[0][1]"
   ]
  },
  {
   "cell_type": "code",
   "execution_count": 8,
   "metadata": {},
   "outputs": [
    {
     "data": {
      "text/plain": [
       "<message note_on channel=0 note=62 velocity=80 time=597>"
      ]
     },
     "execution_count": 8,
     "metadata": {},
     "output_type": "execute_result"
    }
   ],
   "source": []
  },
  {
   "cell_type": "code",
   "execution_count": 40,
   "metadata": {
    "scrolled": true
   },
   "outputs": [
    {
     "name": "stdout",
     "output_type": "stream",
     "text": [
      "note_on channel=7 note=59 velocity=60 time=14464\n",
      "note_on channel=7 note=59 velocity=0 time=32\n",
      "note_on channel=7 note=59 velocity=79 time=18\n",
      "note_on channel=7 note=59 velocity=0 time=42\n",
      "note_on channel=7 note=61 velocity=82 time=10\n",
      "note_on channel=7 note=61 velocity=0 time=30\n",
      "note_on channel=7 note=61 velocity=95 time=7\n",
      "note_on channel=7 note=61 velocity=0 time=45\n",
      "note_on channel=7 note=59 velocity=47 time=8\n",
      "note_on channel=7 note=61 velocity=55 time=53\n",
      "note_on channel=7 note=59 velocity=0 time=3\n",
      "note_on channel=7 note=61 velocity=0 time=32\n",
      "note_on channel=7 note=64 velocity=86 time=6\n",
      "note_on channel=7 note=64 velocity=0 time=54\n",
      "note_on channel=7 note=66 velocity=93 time=42\n",
      "note_on channel=7 note=66 velocity=0 time=59\n",
      "note_on channel=7 note=67 velocity=95 time=41\n",
      "note_on channel=7 note=68 velocity=46 time=11\n",
      "note_on channel=7 note=67 velocity=0 time=11\n",
      "note_on channel=7 note=68 velocity=0 time=45\n",
      "note_on channel=7 note=63 velocity=95 time=72\n",
      "note_on channel=7 note=63 velocity=0 time=43\n",
      "note_on channel=7 note=64 velocity=76 time=11\n",
      "note_on channel=7 note=64 velocity=0 time=34\n",
      "note_on channel=7 note=63 velocity=88 time=13\n",
      "note_on channel=7 note=63 velocity=0 time=38\n",
      "note_on channel=7 note=61 velocity=57 time=13\n",
      "note_on channel=7 note=61 velocity=0 time=43\n",
      "note_on channel=7 note=59 velocity=80 time=3\n",
      "note_on channel=7 note=59 velocity=0 time=51\n",
      "note_on channel=7 note=57 velocity=71 time=0\n",
      "note_on channel=7 note=57 velocity=0 time=154\n",
      "note_on channel=7 note=63 velocity=96 time=86\n",
      "note_on channel=7 note=64 velocity=76 time=8\n",
      "note_on channel=7 note=63 velocity=0 time=37\n",
      "note_on channel=7 note=61 velocity=72 time=101\n",
      "note_on channel=7 note=57 velocity=62 time=51\n",
      "note_on channel=7 note=61 velocity=0 time=10\n",
      "note_on channel=7 note=54 velocity=46 time=32\n",
      "note_on channel=7 note=57 velocity=0 time=17\n",
      "note_on channel=7 note=54 velocity=0 time=26\n",
      "note_on channel=7 note=64 velocity=0 time=36\n",
      "note_on channel=7 note=58 velocity=97 time=17\n",
      "note_on channel=7 note=59 velocity=51 time=11\n",
      "note_on channel=7 note=58 velocity=0 time=16\n",
      "note_on channel=7 note=57 velocity=81 time=75\n",
      "note_on channel=7 note=59 velocity=0 time=16\n",
      "note_on channel=7 note=59 velocity=75 time=31\n",
      "note_on channel=7 note=57 velocity=0 time=3\n",
      "note_on channel=7 note=54 velocity=61 time=49\n",
      "note_on channel=7 note=59 velocity=0 time=1\n",
      "note_on channel=7 note=54 velocity=0 time=79\n",
      "note_on channel=7 note=52 velocity=76 time=5\n",
      "note_on channel=7 note=52 velocity=0 time=64\n",
      "note_on channel=7 note=51 velocity=77 time=40\n",
      "note_on channel=7 note=54 velocity=52 time=42\n",
      "note_on channel=7 note=51 velocity=0 time=40\n",
      "note_on channel=7 note=57 velocity=71 time=11\n",
      "note_on channel=7 note=54 velocity=0 time=16\n",
      "note_on channel=7 note=61 velocity=90 time=30\n",
      "note_on channel=7 note=57 velocity=0 time=8\n",
      "note_on channel=7 note=61 velocity=0 time=51\n",
      "note_on channel=7 note=59 velocity=76 time=33\n",
      "note_on channel=7 note=59 velocity=0 time=37\n",
      "note_on channel=7 note=61 velocity=88 time=244\n",
      "note_on channel=7 note=62 velocity=61 time=10\n",
      "note_on channel=7 note=61 velocity=0 time=22\n",
      "note_on channel=7 note=59 velocity=42 time=32\n",
      "note_on channel=7 note=61 velocity=86 time=37\n",
      "note_on channel=7 note=62 velocity=0 time=2\n",
      "note_on channel=7 note=59 velocity=0 time=11\n",
      "note_on channel=7 note=59 velocity=80 time=34\n",
      "note_on channel=7 note=61 velocity=0 time=9\n",
      "note_on channel=7 note=59 velocity=0 time=34\n",
      "note_on channel=7 note=52 velocity=76 time=51\n",
      "note_on channel=7 note=52 velocity=0 time=43\n",
      "note_on channel=7 note=59 velocity=89 time=199\n",
      "note_on channel=7 note=59 velocity=0 time=21\n",
      "note_on channel=7 note=61 velocity=90 time=36\n",
      "note_on channel=7 note=61 velocity=0 time=35\n",
      "note_on channel=7 note=64 velocity=89 time=12\n",
      "note_on channel=7 note=64 velocity=0 time=24\n",
      "note_on channel=7 note=64 velocity=93 time=22\n",
      "note_on channel=7 note=61 velocity=75 time=45\n",
      "note_on channel=7 note=64 velocity=0 time=6\n",
      "note_on channel=7 note=61 velocity=0 time=37\n",
      "note_on channel=7 note=59 velocity=75 time=51\n",
      "note_on channel=7 note=59 velocity=0 time=50\n",
      "note_on channel=7 note=52 velocity=61 time=46\n",
      "note_on channel=7 note=52 velocity=0 time=53\n",
      "note_on channel=7 note=55 velocity=87 time=37\n",
      "note_on channel=7 note=56 velocity=75 time=6\n",
      "note_on channel=7 note=55 velocity=0 time=4\n",
      "note_on channel=7 note=56 velocity=0 time=39\n",
      "note_on channel=7 note=59 velocity=39 time=10\n",
      "note_on channel=7 note=61 velocity=67 time=38\n",
      "note_on channel=7 note=59 velocity=0 time=2\n",
      "note_on channel=7 note=59 velocity=74 time=53\n",
      "note_on channel=7 note=61 velocity=0 time=11\n",
      "note_on channel=7 note=59 velocity=0 time=155\n",
      "note_on channel=7 note=57 velocity=98 time=71\n",
      "note_on channel=7 note=54 velocity=51 time=52\n",
      "note_on channel=7 note=49 velocity=39 time=45\n",
      "note_on channel=7 note=54 velocity=0 time=16\n",
      "note_on channel=7 note=57 velocity=0 time=45\n",
      "note_on channel=7 note=49 velocity=0 time=19\n",
      "note_on channel=7 note=57 velocity=74 time=0\n",
      "note_on channel=7 note=54 velocity=50 time=40\n",
      "note_on channel=7 note=49 velocity=40 time=48\n",
      "note_on channel=7 note=54 velocity=0 time=3\n",
      "note_on channel=7 note=57 velocity=0 time=29\n",
      "note_on channel=7 note=49 velocity=0 time=19\n",
      "note_on channel=7 note=48 velocity=64 time=27\n",
      "note_on channel=7 note=49 velocity=63 time=11\n",
      "note_on channel=7 note=48 velocity=0 time=10\n",
      "note_on channel=7 note=49 velocity=0 time=46\n",
      "note_on channel=7 note=48 velocity=63 time=20\n",
      "note_on channel=7 note=49 velocity=64 time=9\n",
      "note_on channel=7 note=48 velocity=0 time=10\n",
      "note_on channel=7 note=49 velocity=0 time=251\n",
      "note_on channel=7 note=55 velocity=92 time=8\n",
      "note_on channel=7 note=56 velocity=51 time=10\n",
      "note_on channel=7 note=55 velocity=0 time=17\n",
      "note_on channel=7 note=59 velocity=77 time=25\n",
      "note_on channel=7 note=56 velocity=0 time=24\n",
      "note_on channel=7 note=56 velocity=68 time=22\n",
      "note_on channel=7 note=54 velocity=63 time=101\n",
      "note_on channel=7 note=56 velocity=0 time=16\n",
      "note_on channel=7 note=59 velocity=76 time=30\n",
      "note_on channel=7 note=54 velocity=0 time=28\n",
      "note_on channel=7 note=59 velocity=0 time=1\n",
      "note_on channel=7 note=54 velocity=60 time=18\n",
      "note_on channel=7 note=59 velocity=0 time=86\n",
      "note_on channel=7 note=52 velocity=60 time=2\n",
      "note_on channel=7 note=54 velocity=0 time=29\n",
      "note_on channel=7 note=59 velocity=71 time=17\n",
      "note_on channel=7 note=52 velocity=0 time=16\n",
      "note_on channel=7 note=52 velocity=65 time=34\n",
      "note_on channel=7 note=52 velocity=0 time=45\n",
      "note_on channel=7 note=51 velocity=69 time=6\n",
      "note_on channel=7 note=59 velocity=0 time=74\n",
      "note_on channel=7 note=51 velocity=0 time=16\n",
      "note_on channel=7 note=56 velocity=73 time=37\n",
      "note_on channel=7 note=59 velocity=52 time=33\n",
      "note_on channel=7 note=56 velocity=0 time=7\n",
      "note_on channel=7 note=64 velocity=61 time=24\n",
      "note_on channel=7 note=59 velocity=0 time=3\n",
      "note_on channel=7 note=68 velocity=89 time=27\n",
      "note_on channel=7 note=64 velocity=0 time=18\n",
      "note_on channel=7 note=68 velocity=0 time=17\n",
      "note_on channel=7 note=71 velocity=91 time=64\n",
      "note_on channel=7 note=68 velocity=65 time=32\n",
      "note_on channel=7 note=64 velocity=43 time=34\n",
      "note_on channel=7 note=68 velocity=0 time=22\n",
      "note_on channel=7 note=59 velocity=59 time=8\n",
      "note_on channel=7 note=64 velocity=0 time=31\n",
      "note_on channel=7 note=71 velocity=0 time=30\n",
      "note_on channel=7 note=59 velocity=0 time=40\n",
      "note_on channel=7 note=68 velocity=94 time=0\n",
      "note_on channel=7 note=64 velocity=64 time=46\n",
      "note_on channel=7 note=68 velocity=0 time=5\n",
      "note_on channel=7 note=59 velocity=51 time=42\n",
      "note_on channel=7 note=64 velocity=0 time=7\n",
      "note_on channel=7 note=56 velocity=36 time=41\n",
      "note_on channel=7 note=59 velocity=0 time=5\n",
      "note_on channel=7 note=56 velocity=0 time=35\n",
      "note_on channel=7 note=64 velocity=82 time=6\n",
      "note_on channel=7 note=59 velocity=85 time=47\n",
      "note_on channel=7 note=64 velocity=0 time=6\n",
      "note_on channel=7 note=56 velocity=60 time=40\n",
      "note_on channel=7 note=59 velocity=0 time=13\n",
      "note_on channel=7 note=52 velocity=28 time=49\n",
      "note_on channel=7 note=56 velocity=0 time=8\n",
      "note_on channel=7 note=52 velocity=0 time=26\n",
      "note_on channel=7 note=56 velocity=64 time=6\n",
      "note_on channel=7 note=56 velocity=0 time=43\n",
      "note_on channel=7 note=59 velocity=71 time=5\n",
      "note_on channel=7 note=64 velocity=58 time=47\n",
      "note_on channel=7 note=59 velocity=0 time=3\n",
      "note_on channel=7 note=68 velocity=92 time=46\n",
      "note_on channel=7 note=64 velocity=0 time=12\n",
      "note_on channel=7 note=64 velocity=45 time=86\n",
      "note_on channel=7 note=68 velocity=0 time=20\n",
      "note_on channel=7 note=64 velocity=0 time=15\n",
      "note_on channel=7 note=68 velocity=67 time=11\n",
      "note_on channel=7 note=68 velocity=0 time=42\n",
      "note_on channel=7 note=71 velocity=89 time=10\n",
      "note_on channel=7 note=71 velocity=0 time=40\n",
      "note_on channel=7 note=71 velocity=91 time=57\n",
      "note_on channel=7 note=71 velocity=0 time=43\n",
      "note_on channel=7 note=71 velocity=80 time=47\n",
      "note_on channel=7 note=71 velocity=0 time=48\n",
      "note_on channel=7 note=69 velocity=64 time=3\n",
      "note_on channel=7 note=69 velocity=0 time=51\n",
      "note_on channel=7 note=68 velocity=85 time=39\n",
      "note_on channel=7 note=68 velocity=0 time=51\n",
      "note_on channel=7 note=71 velocity=71 time=53\n",
      "note_on channel=7 note=71 velocity=0 time=51\n",
      "note_on channel=7 note=72 velocity=79 time=37\n",
      "note_on channel=7 note=73 velocity=78 time=6\n",
      "note_on channel=7 note=72 velocity=0 time=12\n",
      "note_on channel=7 note=73 velocity=0 time=39\n",
      "note_on channel=7 note=71 velocity=80 time=34\n",
      "note_on channel=7 note=71 velocity=0 time=34\n",
      "note_on channel=7 note=69 velocity=92 time=22\n",
      "note_on channel=7 note=69 velocity=0 time=45\n",
      "note_on channel=7 note=64 velocity=65 time=1\n",
      "note_on channel=7 note=64 velocity=0 time=53\n",
      "note_on channel=7 note=61 velocity=79 time=43\n",
      "note_on channel=7 note=59 velocity=18 time=55\n",
      "note_on channel=7 note=61 velocity=0 time=6\n",
      "note_on channel=7 note=59 velocity=0 time=32\n",
      "note_on channel=7 note=61 velocity=68 time=0\n",
      "note_on channel=7 note=59 velocity=68 time=51\n",
      "note_on channel=7 note=61 velocity=0 time=13\n",
      "note_on channel=7 note=59 velocity=0 time=37\n",
      "note_on channel=7 note=59 velocity=74 time=40\n",
      "note_on channel=7 note=57 velocity=71 time=53\n",
      "note_on channel=7 note=59 velocity=0 time=6\n",
      "note_on channel=7 note=57 velocity=0 time=98\n",
      "note_on channel=7 note=56 velocity=44 time=89\n",
      "note_on channel=7 note=57 velocity=84 time=48\n",
      "note_on channel=7 note=56 velocity=0 time=3\n",
      "note_on channel=7 note=57 velocity=0 time=50\n",
      "note_on channel=7 note=58 velocity=61 time=0\n",
      "note_on channel=7 note=59 velocity=61 time=43\n",
      "note_on channel=7 note=58 velocity=0 time=18\n",
      "note_on channel=7 note=66 velocity=78 time=32\n",
      "note_on channel=7 note=59 velocity=0 time=14\n",
      "note_on channel=7 note=63 velocity=76 time=32\n",
      "note_on channel=7 note=61 velocity=60 time=53\n",
      "note_on channel=7 note=63 velocity=0 time=14\n",
      "note_on channel=7 note=59 velocity=56 time=31\n",
      "note_on channel=7 note=61 velocity=0 time=9\n",
      "note_on channel=7 note=57 velocity=70 time=39\n",
      "note_on channel=7 note=59 velocity=0 time=6\n",
      "note_on channel=7 note=54 velocity=51 time=39\n",
      "note_on channel=7 note=57 velocity=0 time=19\n",
      "note_on channel=7 note=66 velocity=0 time=82\n",
      "note_on channel=7 note=54 velocity=0 time=58\n",
      "note_on channel=7 note=55 velocity=107 time=95\n",
      "note_on channel=7 note=55 velocity=0 time=48\n",
      "note_on channel=7 note=56 velocity=40 time=4\n",
      "note_on channel=7 note=59 velocity=46 time=28\n",
      "note_on channel=7 note=56 velocity=0 time=12\n",
      "note_on channel=7 note=59 velocity=0 time=22\n",
      "note_on channel=7 note=61 velocity=64 time=0\n",
      "note_on channel=7 note=59 velocity=86 time=32\n",
      "note_on channel=7 note=64 velocity=85 time=0\n",
      "note_on channel=7 note=61 velocity=0 time=10\n",
      "note_on channel=7 note=61 velocity=48 time=12\n",
      "note_on channel=7 note=59 velocity=0 time=5\n",
      "note_on channel=7 note=59 velocity=47 time=119\n",
      "note_on channel=7 note=64 velocity=0 time=25\n",
      "note_on channel=7 note=59 velocity=0 time=5\n",
      "note_on channel=7 note=61 velocity=0 time=0\n",
      "note_on channel=7 note=54 velocity=56 time=8\n",
      "note_on channel=7 note=59 velocity=65 time=3\n",
      "note_on channel=7 note=56 velocity=37 time=15\n",
      "note_on channel=7 note=54 velocity=0 time=4\n",
      "note_on channel=7 note=56 velocity=0 time=17\n",
      "note_on channel=7 note=59 velocity=0 time=6\n",
      "note_on channel=7 note=54 velocity=55 time=22\n",
      "note_on channel=7 note=59 velocity=55 time=2\n",
      "note_on channel=7 note=52 velocity=65 time=32\n",
      "note_on channel=7 note=54 velocity=0 time=11\n",
      "note_on channel=7 note=52 velocity=0 time=72\n",
      "note_on channel=7 note=59 velocity=0 time=13\n",
      "note_on channel=7 note=52 velocity=101 time=267\n",
      "note_on channel=7 note=54 velocity=88 time=40\n",
      "note_on channel=7 note=52 velocity=0 time=3\n",
      "note_on channel=7 note=54 velocity=0 time=50\n",
      "note_on channel=7 note=56 velocity=71 time=5\n",
      "note_on channel=7 note=54 velocity=81 time=38\n",
      "note_on channel=7 note=56 velocity=0 time=2\n",
      "note_on channel=7 note=54 velocity=0 time=48\n",
      "note_on channel=7 note=52 velocity=80 time=1\n",
      "note_on channel=7 note=52 velocity=0 time=54\n",
      "note_on channel=7 note=56 velocity=63 time=15\n",
      "note_on channel=7 note=64 velocity=74 time=0\n",
      "note_on channel=7 note=64 velocity=0 time=21\n",
      "note_on channel=7 note=56 velocity=0 time=3\n",
      "note_on channel=7 note=63 velocity=59 time=16\n",
      "note_on channel=7 note=54 velocity=47 time=0\n",
      "note_on channel=7 note=54 velocity=0 time=23\n",
      "note_on channel=7 note=63 velocity=0 time=2\n",
      "note_on channel=7 note=61 velocity=53 time=0\n",
      "note_on channel=7 note=52 velocity=45 time=0\n",
      "note_on channel=7 note=52 velocity=0 time=59\n",
      "note_on channel=7 note=61 velocity=0 time=4\n",
      "note_on channel=7 note=56 velocity=57 time=17\n",
      "note_on channel=7 note=56 velocity=0 time=22\n",
      "note_on channel=7 note=57 velocity=47 time=3\n",
      "note_on channel=7 note=56 velocity=37 time=27\n",
      "note_on channel=7 note=57 velocity=0 time=7\n",
      "note_on channel=7 note=54 velocity=44 time=24\n",
      "note_on channel=7 note=56 velocity=0 time=3\n",
      "note_on channel=7 note=54 velocity=0 time=96\n",
      "note_on channel=7 note=59 velocity=69 time=0\n",
      "note_on channel=7 note=56 velocity=58 time=14\n",
      "note_on channel=7 note=59 velocity=0 time=6\n",
      "note_on channel=7 note=57 velocity=74 time=20\n",
      "note_on channel=7 note=56 velocity=0 time=9\n",
      "note_on channel=7 note=54 velocity=52 time=63\n",
      "note_on channel=7 note=54 velocity=0 time=60\n",
      "note_on channel=7 note=57 velocity=0 time=21\n",
      "note_on channel=7 note=54 velocity=74 time=7\n",
      "note_on channel=7 note=57 velocity=94 time=19\n",
      "note_on channel=7 note=57 velocity=0 time=54\n",
      "note_on channel=7 note=57 velocity=90 time=13\n",
      "note_on channel=7 note=57 velocity=0 time=37\n",
      "note_on channel=7 note=54 velocity=0 time=3\n",
      "note_on channel=7 note=53 velocity=70 time=5\n",
      "note_on channel=7 note=56 velocity=51 time=1\n",
      "note_on channel=7 note=56 velocity=0 time=48\n",
      "note_on channel=7 note=53 velocity=0 time=4\n",
      "note_on channel=7 note=54 velocity=57 time=3\n",
      "note_on channel=7 note=57 velocity=70 time=8\n",
      "note_on channel=7 note=54 velocity=0 time=45\n",
      "note_on channel=7 note=57 velocity=0 time=4\n",
      "note_on channel=7 note=54 velocity=67 time=6\n",
      "note_on channel=7 note=50 velocity=75 time=0\n",
      "note_on channel=7 note=51 velocity=70 time=16\n",
      "note_on channel=7 note=50 velocity=0 time=2\n",
      "note_on channel=7 note=50 velocity=50 time=37\n",
      "note_on channel=7 note=54 velocity=43 time=0\n",
      "note_on channel=7 note=51 velocity=0 time=6\n",
      "note_on channel=7 note=54 velocity=0 time=0\n",
      "note_on channel=7 note=51 velocity=53 time=2\n",
      "note_on channel=7 note=50 velocity=0 time=21\n",
      "note_on channel=7 note=54 velocity=0 time=3\n",
      "note_on channel=7 note=51 velocity=0 time=7\n",
      "note_on channel=7 note=53 velocity=65 time=11\n",
      "note_on channel=7 note=50 velocity=73 time=0\n",
      "note_on channel=7 note=50 velocity=0 time=43\n",
      "note_on channel=7 note=53 velocity=0 time=0\n",
      "note_on channel=7 note=51 velocity=62 time=21\n",
      "note_on channel=7 note=54 velocity=48 time=0\n",
      "note_on channel=7 note=54 velocity=0 time=37\n",
      "note_on channel=7 note=51 velocity=0 time=5\n",
      "note_on channel=7 note=55 velocity=98 time=184\n",
      "note_on channel=7 note=55 velocity=0 time=42\n",
      "note_on channel=7 note=56 velocity=56 time=7\n",
      "note_on channel=7 note=59 velocity=61 time=27\n",
      "note_on channel=7 note=56 velocity=0 time=11\n",
      "note_on channel=7 note=59 velocity=0 time=21\n",
      "note_on channel=7 note=61 velocity=81 time=2\n",
      "note_on channel=7 note=59 velocity=79 time=37\n",
      "note_on channel=7 note=61 velocity=0 time=13\n",
      "note_on channel=7 note=59 velocity=0 time=59\n",
      "note_on channel=7 note=61 velocity=86 time=14\n",
      "note_on channel=7 note=59 velocity=27 time=58\n",
      "note_on channel=7 note=61 velocity=0 time=6\n",
      "note_on channel=7 note=59 velocity=0 time=7\n",
      "note_on channel=7 note=58 velocity=85 time=4\n",
      "note_on channel=7 note=58 velocity=0 time=10\n",
      "note_on channel=7 note=59 velocity=56 time=0\n",
      "note_on channel=7 note=67 velocity=80 time=46\n",
      "note_on channel=7 note=67 velocity=0 time=117\n",
      "note_on channel=7 note=59 velocity=0 time=8\n",
      "note_on channel=7 note=66 velocity=84 time=14\n",
      "note_on channel=7 note=66 velocity=55 time=44\n",
      "note_on channel=7 note=66 velocity=0 time=7\n",
      "note_on channel=7 note=61 velocity=55 time=41\n",
      "note_on channel=7 note=66 velocity=0 time=5\n",
      "note_on channel=7 note=61 velocity=0 time=45\n",
      "note_on channel=7 note=64 velocity=58 time=50\n",
      "note_on channel=7 note=64 velocity=0 time=51\n",
      "note_on channel=7 note=61 velocity=69 time=42\n",
      "note_on channel=7 note=61 velocity=0 time=51\n",
      "note_on channel=7 note=59 velocity=46 time=50\n",
      "note_on channel=7 note=61 velocity=72 time=91\n",
      "note_on channel=7 note=59 velocity=0 time=3\n",
      "note_on channel=7 note=61 velocity=0 time=50\n",
      "note_on channel=7 note=59 velocity=17 time=6\n",
      "note_on channel=7 note=59 velocity=0 time=34\n",
      "note_on channel=7 note=64 velocity=70 time=6\n",
      "note_on channel=7 note=64 velocity=0 time=50\n",
      "note_on channel=7 note=61 velocity=71 time=42\n",
      "note_on channel=7 note=59 velocity=69 time=49\n",
      "note_on channel=7 note=61 velocity=0 time=5\n",
      "note_on channel=7 note=59 velocity=0 time=40\n",
      "note_on channel=7 note=57 velocity=99 time=13\n",
      "note_on channel=7 note=54 velocity=35 time=57\n",
      "note_on channel=7 note=57 velocity=0 time=4\n",
      "note_on channel=7 note=54 velocity=0 time=31\n",
      "note_on channel=7 note=56 velocity=73 time=4\n",
      "note_on channel=7 note=56 velocity=0 time=34\n",
      "note_on channel=7 note=56 velocity=86 time=14\n",
      "note_on channel=7 note=54 velocity=62 time=49\n",
      "note_on channel=7 note=56 velocity=0 time=5\n",
      "note_on channel=7 note=54 velocity=0 time=40\n",
      "note_on channel=7 note=57 velocity=98 time=79\n",
      "note_on channel=7 note=54 velocity=51 time=52\n",
      "note_on channel=7 note=49 velocity=39 time=45\n",
      "note_on channel=7 note=54 velocity=0 time=16\n",
      "note_on channel=7 note=57 velocity=0 time=45\n",
      "note_on channel=7 note=49 velocity=0 time=19\n",
      "note_on channel=7 note=57 velocity=74 time=0\n",
      "note_on channel=7 note=54 velocity=50 time=40\n",
      "note_on channel=7 note=49 velocity=40 time=48\n",
      "note_on channel=7 note=54 velocity=0 time=3\n",
      "note_on channel=7 note=57 velocity=0 time=29\n",
      "note_on channel=7 note=49 velocity=0 time=19\n",
      "note_on channel=7 note=51 velocity=75 time=14\n",
      "note_on channel=7 note=52 velocity=68 time=53\n",
      "note_on channel=7 note=51 velocity=0 time=6\n",
      "note_on channel=7 note=52 velocity=0 time=36\n",
      "note_on channel=7 note=53 velocity=81 time=5\n",
      "note_on channel=7 note=54 velocity=71 time=52\n",
      "note_on channel=7 note=53 velocity=0 time=1\n",
      "note_on channel=7 note=52 velocity=56 time=1\n",
      "note_on channel=7 note=52 velocity=0 time=27\n",
      "note_on channel=7 note=55 velocity=91 time=59\n",
      "note_on channel=7 note=54 velocity=0 time=14\n",
      "note_on channel=7 note=55 velocity=0 time=36\n",
      "note_on channel=7 note=56 velocity=75 time=0\n",
      "note_on channel=7 note=57 velocity=92 time=51\n",
      "note_on channel=7 note=56 velocity=0 time=3\n",
      "note_on channel=7 note=58 velocity=90 time=90\n",
      "note_on channel=7 note=57 velocity=0 time=19\n",
      "note_on channel=7 note=58 velocity=0 time=29\n",
      "note_on channel=7 note=59 velocity=65 time=0\n",
      "note_on channel=7 note=59 velocity=0 time=48\n",
      "note_on channel=7 note=61 velocity=80 time=2\n",
      "note_on channel=7 note=62 velocity=88 time=48\n",
      "note_on channel=7 note=62 velocity=0 time=10\n",
      "note_on channel=7 note=61 velocity=0 time=1\n",
      "note_on channel=7 note=63 velocity=60 time=0\n",
      "note_on channel=7 note=63 velocity=0 time=54\n",
      "note_on channel=7 note=59 velocity=75 time=29\n",
      "note_on channel=7 note=64 velocity=87 time=98\n",
      "note_on channel=7 note=59 velocity=0 time=6\n",
      "note_on channel=7 note=61 velocity=69 time=46\n",
      "note_on channel=7 note=59 velocity=59 time=47\n",
      "note_on channel=7 note=61 velocity=0 time=9\n",
      "note_on channel=7 note=59 velocity=0 time=12\n",
      "note_on channel=7 note=64 velocity=0 time=18\n",
      "note_on channel=7 note=59 velocity=72 time=7\n",
      "note_on channel=7 note=56 velocity=80 time=2\n",
      "note_on channel=7 note=54 velocity=53 time=30\n",
      "note_on channel=7 note=56 velocity=0 time=4\n",
      "note_on channel=7 note=52 velocity=37 time=48\n",
      "note_on channel=7 note=54 velocity=0 time=10\n",
      "note_on channel=7 note=52 velocity=0 time=28\n",
      "note_on channel=7 note=59 velocity=61 time=2\n",
      "note_on channel=7 note=54 velocity=67 time=1\n",
      "note_on channel=7 note=59 velocity=0 time=6\n",
      "note_on channel=7 note=54 velocity=0 time=45\n",
      "note_on channel=7 note=59 velocity=62 time=0\n",
      "note_on channel=7 note=52 velocity=67 time=0\n",
      "note_on channel=7 note=59 velocity=0 time=1\n",
      "note_on channel=7 note=52 velocity=0 time=47\n",
      "note_on channel=7 note=59 velocity=0 time=8\n",
      "note_on channel=7 note=55 velocity=88 time=135\n",
      "note_on channel=7 note=55 velocity=0 time=43\n",
      "note_on channel=7 note=56 velocity=51 time=8\n",
      "note_on channel=7 note=56 velocity=0 time=51\n",
      "note_on channel=7 note=59 velocity=43 time=0\n",
      "note_on channel=7 note=59 velocity=0 time=29\n",
      "note_on channel=7 note=61 velocity=75 time=11\n",
      "note_on channel=7 note=61 velocity=0 time=51\n",
      "note_on channel=7 note=59 velocity=24 time=7\n",
      "note_on channel=7 note=59 velocity=0 time=35\n",
      "note_on channel=7 note=61 velocity=67 time=2\n",
      "note_on channel=7 note=59 velocity=16 time=78\n",
      "note_on channel=7 note=64 velocity=76 time=21\n",
      "note_on channel=7 note=59 velocity=0 time=11\n",
      "note_on channel=7 note=61 velocity=0 time=5\n",
      "note_on channel=7 note=61 velocity=62 time=35\n",
      "note_on channel=7 note=59 velocity=68 time=44\n",
      "note_on channel=7 note=61 velocity=0 time=33\n",
      "note_on channel=7 note=59 velocity=0 time=21\n",
      "note_on channel=7 note=64 velocity=0 time=26\n",
      "note_on channel=7 note=52 velocity=43 time=25\n",
      "note_on channel=7 note=52 velocity=0 time=1\n",
      "note_on channel=7 note=59 velocity=63 time=7\n",
      "note_on channel=7 note=55 velocity=72 time=3\n",
      "note_on channel=7 note=56 velocity=48 time=17\n",
      "note_on channel=7 note=55 velocity=0 time=7\n",
      "note_on channel=7 note=52 velocity=36 time=30\n",
      "note_on channel=7 note=56 velocity=0 time=27\n",
      "note_on channel=7 note=59 velocity=51 time=8\n",
      "note_on channel=7 note=54 velocity=64 time=0\n",
      "note_on channel=7 note=59 velocity=0 time=2\n",
      "note_on channel=7 note=52 velocity=0 time=1\n",
      "note_on channel=7 note=59 velocity=63 time=50\n",
      "note_on channel=7 note=52 velocity=70 time=0\n",
      "note_on channel=7 note=59 velocity=0 time=1\n",
      "note_on channel=7 note=54 velocity=0 time=0\n",
      "note_on channel=7 note=52 velocity=0 time=24\n",
      "note_on channel=7 note=59 velocity=0 time=9\n",
      "note_on channel=7 note=57 velocity=87 time=269\n",
      "note_on channel=7 note=57 velocity=0 time=30\n",
      "note_on channel=7 note=56 velocity=28 time=7\n",
      "note_on channel=7 note=56 velocity=0 time=29\n",
      "note_on channel=7 note=54 velocity=38 time=0\n",
      "note_on channel=7 note=61 velocity=68 time=38\n",
      "note_on channel=7 note=54 velocity=0 time=10\n",
      "note_on channel=7 note=61 velocity=0 time=20\n",
      "note_on channel=7 note=59 velocity=31 time=1\n",
      "note_on channel=7 note=57 velocity=44 time=27\n",
      "note_on channel=7 note=59 velocity=0 time=5\n",
      "note_on channel=7 note=66 velocity=84 time=27\n",
      "note_on channel=7 note=57 velocity=0 time=18\n",
      "note_on channel=7 note=66 velocity=0 time=14\n",
      "note_on channel=7 note=61 velocity=46 time=5\n",
      "note_on channel=7 note=61 velocity=0 time=29\n",
      "note_on channel=7 note=59 velocity=51 time=3\n",
      "note_on channel=7 note=57 velocity=85 time=30\n",
      "note_on channel=7 note=59 velocity=0 time=20\n",
      "note_on channel=7 note=59 velocity=62 time=30\n",
      "note_on channel=7 note=57 velocity=0 time=14\n",
      "note_on channel=7 note=61 velocity=77 time=34\n",
      "note_on channel=7 note=59 velocity=0 time=8\n",
      "note_on channel=7 note=57 velocity=74 time=37\n",
      "note_on channel=7 note=54 velocity=58 time=48\n",
      "note_on channel=7 note=54 velocity=0 time=25\n",
      "note_on channel=7 note=57 velocity=0 time=19\n",
      "note_on channel=7 note=61 velocity=0 time=3\n",
      "note_on channel=7 note=49 velocity=61 time=116\n",
      "note_on channel=7 note=49 velocity=0 time=34\n",
      "note_on channel=7 note=50 velocity=51 time=1\n",
      "note_on channel=7 note=51 velocity=61 time=30\n",
      "note_on channel=7 note=50 velocity=0 time=4\n",
      "note_on channel=7 note=59 velocity=89 time=30\n",
      "note_on channel=7 note=51 velocity=0 time=14\n",
      "note_on channel=7 note=52 velocity=57 time=15\n",
      "note_on channel=7 note=59 velocity=0 time=18\n",
      "note_on channel=7 note=53 velocity=73 time=24\n",
      "note_on channel=7 note=52 velocity=0 time=4\n",
      "note_on channel=7 note=54 velocity=64 time=41\n",
      "note_on channel=7 note=53 velocity=0 time=9\n",
      "note_on channel=7 note=63 velocity=72 time=41\n",
      "note_on channel=7 note=54 velocity=0 time=16\n",
      "note_on channel=7 note=63 velocity=0 time=28\n",
      "note_on channel=7 note=55 velocity=104 time=54\n",
      "note_on channel=7 note=55 velocity=0 time=34\n",
      "note_on channel=7 note=56 velocity=79 time=11\n",
      "note_on channel=7 note=57 velocity=74 time=46\n",
      "note_on channel=7 note=56 velocity=0 time=4\n",
      "note_on channel=7 note=66 velocity=84 time=42\n",
      "note_on channel=7 note=57 velocity=0 time=13\n",
      "note_on channel=7 note=65 velocity=76 time=37\n",
      "note_on channel=7 note=66 velocity=0 time=16\n",
      "note_on channel=7 note=63 velocity=56 time=35\n",
      "note_on channel=7 note=65 velocity=0 time=5\n",
      "note_on channel=7 note=63 velocity=0 time=13\n",
      "note_on channel=7 note=64 velocity=88 time=8\n",
      "note_on channel=7 note=61 velocity=65 time=142\n",
      "note_on channel=7 note=64 velocity=0 time=36\n",
      "note_on channel=7 note=61 velocity=0 time=233\n",
      "note_on channel=7 note=64 velocity=91 time=163\n",
      "note_on channel=7 note=64 velocity=0 time=50\n",
      "note_on channel=7 note=66 velocity=98 time=48\n",
      "note_on channel=7 note=64 velocity=28 time=54\n",
      "note_on channel=7 note=66 velocity=0 time=10\n",
      "note_on channel=7 note=67 velocity=89 time=32\n",
      "note_on channel=7 note=64 velocity=0 time=1\n",
      "note_on channel=7 note=67 velocity=0 time=42\n",
      "note_on channel=7 note=67 velocity=99 time=2\n",
      "note_on channel=7 note=67 velocity=0 time=43\n",
      "note_on channel=7 note=66 velocity=62 time=6\n",
      "note_on channel=7 note=66 velocity=77 time=47\n",
      "note_on channel=7 note=66 velocity=0 time=1\n",
      "note_on channel=7 note=64 velocity=54 time=47\n",
      "note_on channel=7 note=66 velocity=0 time=2\n",
      "note_on channel=7 note=64 velocity=0 time=54\n",
      "note_on channel=7 note=61 velocity=42 time=41\n",
      "note_on channel=7 note=61 velocity=0 time=64\n",
      "note_on channel=7 note=63 velocity=50 time=34\n",
      "note_on channel=7 note=64 velocity=62 time=5\n",
      "note_on channel=7 note=63 velocity=0 time=6\n",
      "note_on channel=7 note=63 velocity=56 time=37\n",
      "note_on channel=7 note=64 velocity=45 time=9\n",
      "note_on channel=7 note=64 velocity=0 time=2\n",
      "note_on channel=7 note=63 velocity=0 time=23\n",
      "note_on channel=7 note=64 velocity=0 time=250\n",
      "note_on channel=7 note=60 velocity=67 time=101\n",
      "note_on channel=7 note=60 velocity=0 time=45\n",
      "note_on channel=7 note=61 velocity=61 time=0\n",
      "note_on channel=7 note=69 velocity=72 time=55\n",
      "note_on channel=7 note=61 velocity=0 time=36\n",
      "note_on channel=7 note=69 velocity=0 time=15\n",
      "note_on channel=7 note=66 velocity=93 time=37\n",
      "note_on channel=7 note=66 velocity=0 time=56\n",
      "note_on channel=7 note=64 velocity=48 time=43\n",
      "note_on channel=7 note=66 velocity=90 time=45\n",
      "note_on channel=7 note=64 velocity=0 time=5\n",
      "note_on channel=7 note=66 velocity=0 time=49\n",
      "note_on channel=7 note=64 velocity=67 time=38\n",
      "note_on channel=7 note=57 velocity=61 time=96\n",
      "note_on channel=7 note=64 velocity=0 time=13\n",
      "note_on channel=7 note=57 velocity=0 time=158\n",
      "note_on channel=7 note=57 velocity=65 time=18\n",
      "note_on channel=7 note=63 velocity=81 time=2\n",
      "note_on channel=7 note=59 velocity=53 time=21\n",
      "note_on channel=7 note=57 velocity=0 time=4\n",
      "note_on channel=7 note=59 velocity=0 time=41\n",
      "note_on channel=7 note=57 velocity=58 time=1\n",
      "note_on channel=7 note=63 velocity=0 time=80\n",
      "note_on channel=7 note=57 velocity=0 time=11\n",
      "note_on channel=7 note=57 velocity=58 time=3\n",
      "note_on channel=7 note=63 velocity=72 time=2\n",
      "note_on channel=7 note=59 velocity=50 time=19\n",
      "note_on channel=7 note=57 velocity=0 time=8\n",
      "note_on channel=7 note=63 velocity=0 time=39\n",
      "note_on channel=7 note=59 velocity=0 time=7\n",
      "note_on channel=7 note=54 velocity=69 time=75\n",
      "note_on channel=7 note=54 velocity=0 time=38\n",
      "note_on channel=7 note=63 velocity=82 time=7\n",
      "note_on channel=7 note=57 velocity=72 time=2\n",
      "note_on channel=7 note=59 velocity=33 time=29\n",
      "note_on channel=7 note=57 velocity=0 time=1\n",
      "note_on channel=7 note=57 velocity=48 time=16\n",
      "note_on channel=7 note=59 velocity=0 time=15\n",
      "note_on channel=7 note=63 velocity=0 time=1\n",
      "note_on channel=7 note=54 velocity=42 time=10\n",
      "note_on channel=7 note=57 velocity=0 time=4\n",
      "note_on channel=7 note=57 velocity=80 time=17\n",
      "note_on channel=7 note=63 velocity=85 time=0\n",
      "note_on channel=7 note=54 velocity=0 time=17\n",
      "note_on channel=7 note=63 velocity=84 time=32\n",
      "note_on channel=7 note=54 velocity=75 time=0\n",
      "note_on channel=7 note=57 velocity=0 time=1\n",
      "note_on channel=7 note=63 velocity=0 time=4\n",
      "note_on channel=7 note=54 velocity=0 time=19\n",
      "note_on channel=7 note=63 velocity=0 time=13\n",
      "note_on channel=7 note=59 velocity=75 time=265\n",
      "note_on channel=7 note=59 velocity=0 time=24\n",
      "note_on channel=7 note=61 velocity=87 time=31\n",
      "note_on channel=7 note=61 velocity=0 time=43\n",
      "note_on channel=7 note=64 velocity=69 time=2\n",
      "note_on channel=7 note=64 velocity=0 time=30\n",
      "note_on channel=7 note=66 velocity=89 time=22\n",
      "note_on channel=7 note=64 velocity=65 time=45\n",
      "note_on channel=7 note=66 velocity=0 time=9\n",
      "note_on channel=7 note=64 velocity=0 time=31\n",
      "note_on channel=7 note=61 velocity=77 time=8\n",
      "note_on channel=7 note=61 velocity=0 time=43\n",
      "note_on channel=7 note=64 velocity=68 time=7\n",
      "note_on channel=7 note=66 velocity=58 time=43\n",
      "note_on channel=7 note=64 velocity=0 time=8\n",
      "note_on channel=7 note=64 velocity=63 time=40\n",
      "note_on channel=7 note=66 velocity=0 time=2\n",
      "note_on channel=7 note=64 velocity=0 time=21\n",
      "note_on channel=7 note=61 velocity=16 time=24\n",
      "note_on channel=7 note=63 velocity=21 time=3\n",
      "note_on channel=7 note=61 velocity=0 time=24\n",
      "note_on channel=7 note=63 velocity=0 time=10\n",
      "note_on channel=7 note=71 velocity=77 time=14\n",
      "note_on channel=7 note=66 velocity=75 time=3\n",
      "note_on channel=7 note=63 velocity=52 time=39\n",
      "note_on channel=7 note=66 velocity=0 time=6\n",
      "note_on channel=7 note=71 velocity=0 time=18\n",
      "note_on channel=7 note=63 velocity=0 time=13\n",
      "note_on channel=7 note=66 velocity=43 time=51\n",
      "note_on channel=7 note=61 velocity=42 time=2\n",
      "note_on channel=7 note=59 velocity=24 time=48\n",
      "note_on channel=7 note=61 velocity=0 time=11\n",
      "note_on channel=7 note=59 velocity=0 time=23\n",
      "note_on channel=7 note=66 velocity=0 time=2\n",
      "note_on channel=7 note=66 velocity=39 time=4\n",
      "note_on channel=7 note=61 velocity=48 time=1\n",
      "note_on channel=7 note=64 velocity=43 time=50\n",
      "note_on channel=7 note=59 velocity=37 time=3\n",
      "note_on channel=7 note=66 velocity=0 time=2\n",
      "note_on channel=7 note=61 velocity=0 time=7\n",
      "note_on channel=7 note=59 velocity=0 time=35\n",
      "note_on channel=7 note=64 velocity=0 time=14\n",
      "note_on channel=7 note=59 velocity=78 time=106\n",
      "note_on channel=7 note=61 velocity=64 time=32\n",
      "note_on channel=7 note=59 velocity=0 time=18\n",
      "note_on channel=7 note=61 velocity=0 time=68\n",
      "note_on channel=7 note=54 velocity=76 time=27\n",
      "note_on channel=7 note=55 velocity=70 time=5\n",
      "note_on channel=7 note=54 velocity=0 time=19\n",
      "note_on channel=7 note=55 velocity=0 time=23\n",
      "note_on channel=7 note=52 velocity=47 time=5\n",
      "note_on channel=7 note=52 velocity=0 time=38\n",
      "note_on channel=7 note=54 velocity=84 time=8\n",
      "note_on channel=7 note=54 velocity=0 time=83\n",
      "note_on channel=7 note=57 velocity=87 time=99\n",
      "note_on channel=7 note=57 velocity=0 time=30\n",
      "note_on channel=7 note=56 velocity=28 time=7\n",
      "note_on channel=7 note=56 velocity=0 time=29\n",
      "note_on channel=7 note=54 velocity=38 time=0\n",
      "note_on channel=7 note=61 velocity=68 time=38\n",
      "note_on channel=7 note=54 velocity=0 time=10\n",
      "note_on channel=7 note=61 velocity=0 time=20\n",
      "note_on channel=7 note=59 velocity=31 time=1\n",
      "note_on channel=7 note=57 velocity=44 time=27\n",
      "note_on channel=7 note=59 velocity=0 time=5\n",
      "note_on channel=7 note=66 velocity=84 time=27\n",
      "note_on channel=7 note=57 velocity=0 time=18\n",
      "note_on channel=7 note=66 velocity=0 time=14\n",
      "note_on channel=7 note=61 velocity=46 time=5\n",
      "note_on channel=7 note=61 velocity=0 time=29\n",
      "note_on channel=7 note=59 velocity=51 time=3\n",
      "note_on channel=7 note=57 velocity=85 time=30\n",
      "note_on channel=7 note=59 velocity=0 time=20\n",
      "note_on channel=7 note=59 velocity=62 time=30\n",
      "note_on channel=7 note=57 velocity=0 time=14\n",
      "note_on channel=7 note=61 velocity=77 time=34\n",
      "note_on channel=7 note=59 velocity=0 time=8\n",
      "note_on channel=7 note=57 velocity=74 time=37\n",
      "note_on channel=7 note=54 velocity=58 time=48\n",
      "note_on channel=7 note=54 velocity=0 time=25\n",
      "note_on channel=7 note=57 velocity=0 time=19\n",
      "note_on channel=7 note=61 velocity=0 time=3\n",
      "note_on channel=7 note=54 velocity=82 time=117\n",
      "note_on channel=7 note=54 velocity=0 time=50\n",
      "note_on channel=7 note=63 velocity=106 time=51\n",
      "note_on channel=7 note=63 velocity=0 time=154\n",
      "note_on channel=7 note=59 velocity=93 time=36\n",
      "note_on channel=7 note=63 velocity=95 time=4\n",
      "note_on channel=7 note=59 velocity=0 time=49\n",
      "note_on channel=7 note=57 velocity=60 time=3\n",
      "note_on channel=7 note=54 velocity=60 time=42\n",
      "note_on channel=7 note=57 velocity=0 time=6\n",
      "note_on channel=7 note=63 velocity=0 time=14\n",
      "note_on channel=7 note=63 velocity=94 time=23\n",
      "note_on channel=7 note=57 velocity=74 time=5\n",
      "note_on channel=7 note=54 velocity=0 time=2\n",
      "note_on channel=7 note=59 velocity=24 time=32\n",
      "note_on channel=7 note=57 velocity=0 time=1\n",
      "note_on channel=7 note=59 velocity=0 time=33\n",
      "note_on channel=7 note=63 velocity=0 time=2\n",
      "note_on channel=7 note=63 velocity=96 time=23\n",
      "note_on channel=7 note=57 velocity=85 time=0\n",
      "note_on channel=7 note=57 velocity=0 time=20\n",
      "note_on channel=7 note=63 velocity=0 time=6\n",
      "note_on channel=7 note=55 velocity=78 time=35\n",
      "note_on channel=7 note=56 velocity=57 time=20\n",
      "note_on channel=7 note=55 velocity=0 time=9\n",
      "note_on channel=7 note=59 velocity=74 time=39\n",
      "note_on channel=7 note=56 velocity=0 time=3\n",
      "note_on channel=7 note=59 velocity=0 time=39\n",
      "note_on channel=7 note=61 velocity=61 time=6\n",
      "note_on channel=7 note=61 velocity=0 time=35\n",
      "note_on channel=7 note=64 velocity=80 time=11\n",
      "note_on channel=7 note=64 velocity=0 time=50\n",
      "note_on channel=7 note=67 velocity=92 time=4\n",
      "note_on channel=7 note=67 velocity=0 time=51\n",
      "note_on channel=7 note=64 velocity=25 time=1\n",
      "note_on channel=7 note=66 velocity=87 time=41\n",
      "note_on channel=7 note=64 velocity=0 time=2\n",
      "note_on channel=7 note=66 velocity=0 time=41\n",
      "note_on channel=7 note=67 velocity=74 time=55\n",
      "note_on channel=7 note=69 velocity=72 time=49\n",
      "note_on channel=7 note=67 velocity=0 time=5\n",
      "note_on channel=7 note=67 velocity=53 time=43\n",
      "note_on channel=7 note=69 velocity=0 time=5\n",
      "note_on channel=7 note=67 velocity=0 time=43\n",
      "note_on channel=7 note=67 velocity=76 time=0\n",
      "note_on channel=7 note=67 velocity=0 time=45\n",
      "note_on channel=7 note=64 velocity=55 time=50\n",
      "note_on channel=7 note=69 velocity=78 time=41\n",
      "note_on channel=7 note=64 velocity=0 time=10\n",
      "note_on channel=7 note=64 velocity=30 time=53\n",
      "note_on channel=7 note=69 velocity=0 time=11\n",
      "note_on channel=7 note=67 velocity=89 time=29\n",
      "note_on channel=7 note=64 velocity=0 time=8\n",
      "note_on channel=7 note=67 velocity=0 time=35\n",
      "note_on channel=7 note=67 velocity=99 time=2\n",
      "note_on channel=7 note=67 velocity=0 time=43\n",
      "note_on channel=7 note=66 velocity=62 time=6\n",
      "note_on channel=7 note=66 velocity=77 time=47\n",
      "note_on channel=7 note=66 velocity=0 time=1\n",
      "note_on channel=7 note=64 velocity=54 time=47\n",
      "note_on channel=7 note=66 velocity=0 time=2\n",
      "note_on channel=7 note=64 velocity=0 time=54\n",
      "note_on channel=7 note=61 velocity=42 time=41\n",
      "note_on channel=7 note=61 velocity=0 time=64\n",
      "note_on channel=7 note=63 velocity=50 time=34\n",
      "note_on channel=7 note=64 velocity=62 time=5\n",
      "note_on channel=7 note=63 velocity=0 time=6\n",
      "note_on channel=7 note=63 velocity=56 time=37\n",
      "note_on channel=7 note=64 velocity=45 time=9\n",
      "note_on channel=7 note=64 velocity=0 time=2\n",
      "note_on channel=7 note=63 velocity=0 time=23\n",
      "note_on channel=7 note=63 velocity=95 time=246\n",
      "note_on channel=7 note=64 velocity=0 time=4\n",
      "note_on channel=7 note=63 velocity=0 time=39\n",
      "note_on channel=7 note=64 velocity=76 time=11\n",
      "note_on channel=7 note=64 velocity=0 time=34\n",
      "note_on channel=7 note=63 velocity=88 time=13\n",
      "note_on channel=7 note=63 velocity=0 time=38\n",
      "note_on channel=7 note=61 velocity=57 time=13\n",
      "note_on channel=7 note=61 velocity=0 time=43\n",
      "note_on channel=7 note=59 velocity=80 time=3\n",
      "note_on channel=7 note=59 velocity=0 time=51\n",
      "note_on channel=7 note=57 velocity=71 time=0\n",
      "note_on channel=7 note=57 velocity=0 time=154\n",
      "note_on channel=7 note=63 velocity=96 time=86\n",
      "note_on channel=7 note=64 velocity=76 time=8\n",
      "note_on channel=7 note=63 velocity=0 time=37\n",
      "note_on channel=7 note=61 velocity=72 time=101\n",
      "note_on channel=7 note=57 velocity=62 time=51\n",
      "note_on channel=7 note=61 velocity=0 time=10\n",
      "note_on channel=7 note=54 velocity=46 time=32\n",
      "note_on channel=7 note=57 velocity=0 time=17\n",
      "note_on channel=7 note=54 velocity=0 time=26\n",
      "note_on channel=7 note=64 velocity=0 time=36\n",
      "note_on channel=7 note=51 velocity=75 time=10\n",
      "note_on channel=7 note=52 velocity=68 time=53\n",
      "note_on channel=7 note=51 velocity=0 time=6\n",
      "note_on channel=7 note=52 velocity=0 time=36\n",
      "note_on channel=7 note=53 velocity=81 time=5\n",
      "note_on channel=7 note=54 velocity=71 time=52\n",
      "note_on channel=7 note=53 velocity=0 time=1\n",
      "note_on channel=7 note=52 velocity=56 time=1\n",
      "note_on channel=7 note=52 velocity=0 time=27\n",
      "note_on channel=7 note=55 velocity=91 time=59\n",
      "note_on channel=7 note=54 velocity=0 time=14\n",
      "note_on channel=7 note=55 velocity=0 time=36\n",
      "note_on channel=7 note=56 velocity=75 time=0\n",
      "note_on channel=7 note=57 velocity=92 time=51\n",
      "note_on channel=7 note=56 velocity=0 time=3\n",
      "note_on channel=7 note=58 velocity=90 time=90\n",
      "note_on channel=7 note=57 velocity=0 time=19\n",
      "note_on channel=7 note=58 velocity=0 time=29\n",
      "note_on channel=7 note=59 velocity=65 time=0\n",
      "note_on channel=7 note=59 velocity=0 time=48\n",
      "note_on channel=7 note=61 velocity=80 time=2\n",
      "note_on channel=7 note=62 velocity=88 time=48\n",
      "note_on channel=7 note=62 velocity=0 time=10\n",
      "note_on channel=7 note=61 velocity=0 time=1\n",
      "note_on channel=7 note=63 velocity=60 time=0\n",
      "note_on channel=7 note=63 velocity=0 time=54\n",
      "note_on channel=7 note=59 velocity=75 time=29\n",
      "note_on channel=7 note=56 velocity=57 time=98\n",
      "note_on channel=7 note=59 velocity=0 time=6\n",
      "note_on channel=7 note=59 velocity=74 time=42\n",
      "note_on channel=7 note=56 velocity=0 time=3\n",
      "note_on channel=7 note=59 velocity=0 time=39\n",
      "note_on channel=7 note=61 velocity=61 time=6\n",
      "note_on channel=7 note=61 velocity=0 time=35\n",
      "note_on channel=7 note=64 velocity=80 time=11\n",
      "note_on channel=7 note=64 velocity=0 time=50\n",
      "note_on channel=7 note=67 velocity=92 time=4\n",
      "note_on channel=7 note=67 velocity=0 time=51\n",
      "note_on channel=7 note=64 velocity=25 time=1\n",
      "note_on channel=7 note=66 velocity=87 time=41\n",
      "note_on channel=7 note=64 velocity=0 time=2\n",
      "note_on channel=7 note=66 velocity=0 time=41\n",
      "note_on channel=7 note=64 velocity=76 time=52\n",
      "note_on channel=7 note=64 velocity=0 time=53\n",
      "note_on channel=7 note=73 velocity=88 time=46\n",
      "note_on channel=7 note=73 velocity=0 time=35\n",
      "note_on channel=7 note=71 velocity=82 time=14\n",
      "note_on channel=7 note=71 velocity=0 time=48\n",
      "note_on channel=7 note=67 velocity=79 time=2\n",
      "note_on channel=7 note=67 velocity=0 time=40\n",
      "note_on channel=7 note=66 velocity=81 time=6\n",
      "note_on channel=7 note=64 velocity=61 time=47\n",
      "note_on channel=7 note=66 velocity=0 time=3\n",
      "note_on channel=7 note=64 velocity=0 time=42\n",
      "note_on channel=7 note=61 velocity=70 time=3\n",
      "note_on channel=7 note=59 velocity=48 time=46\n",
      "note_on channel=7 note=61 velocity=0 time=2\n",
      "note_on channel=7 note=59 velocity=0 time=91\n",
      "note_on channel=7 note=61 velocity=81 time=3\n",
      "note_on channel=7 note=61 velocity=0 time=45\n",
      "note_on channel=7 note=59 velocity=27 time=5\n",
      "note_on channel=7 note=59 velocity=0 time=34\n",
      "note_on channel=7 note=63 velocity=71 time=9\n",
      "note_on channel=7 note=64 velocity=60 time=11\n",
      "note_on channel=7 note=63 velocity=0 time=18\n",
      "note_on channel=7 note=64 velocity=0 time=32\n",
      "note_on channel=7 note=64 velocity=86 time=37\n",
      "note_on channel=7 note=64 velocity=0 time=48\n",
      "note_on channel=7 note=61 velocity=81 time=3\n",
      "note_on channel=7 note=59 velocity=58 time=46\n",
      "note_on channel=7 note=61 velocity=0 time=8\n",
      "note_on channel=7 note=59 velocity=0 time=45\n",
      "note_on channel=7 note=56 velocity=75 time=43\n",
      "note_on channel=7 note=55 velocity=62 time=0\n",
      "note_on channel=7 note=55 velocity=0 time=8\n",
      "note_on channel=7 note=52 velocity=65 time=37\n",
      "note_on channel=7 note=56 velocity=0 time=8\n",
      "note_on channel=7 note=52 velocity=0 time=157\n",
      "note_on channel=7 note=57 velocity=87 time=169\n",
      "note_on channel=7 note=57 velocity=0 time=30\n",
      "note_on channel=7 note=56 velocity=28 time=7\n",
      "note_on channel=7 note=56 velocity=0 time=29\n",
      "note_on channel=7 note=54 velocity=38 time=0\n",
      "note_on channel=7 note=61 velocity=68 time=38\n",
      "note_on channel=7 note=54 velocity=0 time=10\n",
      "note_on channel=7 note=61 velocity=0 time=20\n",
      "note_on channel=7 note=59 velocity=31 time=1\n",
      "note_on channel=7 note=57 velocity=44 time=27\n",
      "note_on channel=7 note=59 velocity=0 time=5\n",
      "note_on channel=7 note=66 velocity=84 time=27\n",
      "note_on channel=7 note=57 velocity=0 time=18\n",
      "note_on channel=7 note=66 velocity=0 time=14\n",
      "note_on channel=7 note=61 velocity=46 time=5\n",
      "note_on channel=7 note=61 velocity=0 time=29\n",
      "note_on channel=7 note=59 velocity=51 time=3\n",
      "note_on channel=7 note=57 velocity=85 time=30\n",
      "note_on channel=7 note=59 velocity=0 time=20\n",
      "note_on channel=7 note=59 velocity=62 time=30\n",
      "note_on channel=7 note=57 velocity=0 time=14\n",
      "note_on channel=7 note=61 velocity=77 time=34\n",
      "note_on channel=7 note=59 velocity=0 time=8\n",
      "note_on channel=7 note=57 velocity=74 time=37\n",
      "note_on channel=7 note=54 velocity=58 time=48\n",
      "note_on channel=7 note=54 velocity=0 time=25\n",
      "note_on channel=7 note=57 velocity=0 time=19\n",
      "note_on channel=7 note=61 velocity=0 time=3\n",
      "note_on channel=7 note=54 velocity=74 time=16\n",
      "note_on channel=7 note=55 velocity=85 time=50\n",
      "note_on channel=7 note=56 velocity=80 time=8\n",
      "note_on channel=7 note=54 velocity=0 time=1\n",
      "note_on channel=7 note=55 velocity=0 time=2\n",
      "note_on channel=7 note=56 velocity=0 time=50\n",
      "note_on channel=7 note=59 velocity=86 time=19\n",
      "note_on channel=7 note=59 velocity=0 time=42\n",
      "note_on channel=7 note=61 velocity=91 time=22\n",
      "note_on channel=7 note=59 velocity=79 time=139\n",
      "note_on channel=7 note=61 velocity=0 time=32\n",
      "note_on channel=7 note=59 velocity=0 time=16\n",
      "note_on channel=7 note=61 velocity=84 time=23\n",
      "note_on channel=7 note=59 velocity=64 time=80\n",
      "note_on channel=7 note=61 velocity=0 time=13\n",
      "note_on channel=7 note=59 velocity=0 time=30\n",
      "note_on channel=7 note=62 velocity=81 time=5\n",
      "note_on channel=7 note=63 velocity=28 time=32\n",
      "note_on channel=7 note=62 velocity=0 time=11\n",
      "note_on channel=7 note=63 velocity=0 time=29\n",
      "note_on channel=7 note=64 velocity=52 time=229\n",
      "note_on channel=7 note=64 velocity=0 time=35\n",
      "note_on channel=7 note=70 velocity=93 time=14\n",
      "note_on channel=7 note=70 velocity=0 time=22\n",
      "note_on channel=7 note=69 velocity=62 time=9\n",
      "note_on channel=7 note=69 velocity=0 time=27\n",
      "note_on channel=7 note=67 velocity=89 time=3\n",
      "note_on channel=7 note=64 velocity=70 time=34\n",
      "note_on channel=7 note=67 velocity=0 time=6\n",
      "note_on channel=7 note=64 velocity=0 time=28\n",
      "note_on channel=7 note=59 velocity=36 time=17\n",
      "note_on channel=7 note=59 velocity=0 time=32\n",
      "note_on channel=7 note=63 velocity=69 time=13\n",
      "note_on channel=7 note=64 velocity=54 time=11\n",
      "note_on channel=7 note=63 velocity=0 time=7\n",
      "note_on channel=7 note=64 velocity=0 time=43\n",
      "note_on channel=7 note=63 velocity=55 time=1\n",
      "note_on channel=7 note=64 velocity=63 time=8\n",
      "note_on channel=7 note=63 velocity=0 time=3\n",
      "note_on channel=7 note=61 velocity=64 time=119\n",
      "note_on channel=7 note=64 velocity=0 time=24\n",
      "note_on channel=7 note=59 velocity=41 time=29\n",
      "note_on channel=7 note=61 velocity=0 time=13\n",
      "note_on channel=7 note=52 velocity=26 time=219\n",
      "note_on channel=7 note=59 velocity=0 time=22\n",
      "note_on channel=7 note=55 velocity=72 time=29\n",
      "note_on channel=7 note=52 velocity=0 time=2\n",
      "note_on channel=7 note=55 velocity=0 time=41\n",
      "note_on channel=7 note=56 velocity=43 time=2\n",
      "note_on channel=7 note=56 velocity=0 time=51\n",
      "note_on channel=7 note=59 velocity=47 time=3\n",
      "note_on channel=7 note=59 velocity=0 time=45\n",
      "note_on channel=7 note=61 velocity=58 time=1\n",
      "note_on channel=7 note=61 velocity=0 time=64\n",
      "note_on channel=7 note=59 velocity=11 time=10\n",
      "note_on channel=7 note=64 velocity=58 time=18\n",
      "note_on channel=7 note=59 velocity=0 time=3\n",
      "note_on channel=7 note=64 velocity=0 time=48\n",
      "note_on channel=7 note=52 velocity=38 time=3\n",
      "note_on channel=7 note=52 velocity=0 time=45\n",
      "note_on channel=7 note=57 velocity=88 time=334\n",
      "note_on channel=7 note=54 velocity=63 time=51\n",
      "note_on channel=7 note=54 velocity=0 time=59\n",
      "note_on channel=7 note=57 velocity=0 time=36\n",
      "note_on channel=7 note=57 velocity=63 time=1\n",
      "note_on channel=7 note=52 velocity=68 time=2\n",
      "note_on channel=7 note=57 velocity=0 time=48\n",
      "note_on channel=7 note=52 velocity=0 time=6\n",
      "note_on channel=7 note=57 velocity=70 time=36\n",
      "note_on channel=7 note=50 velocity=80 time=1\n",
      "note_on channel=7 note=50 velocity=0 time=64\n",
      "note_on channel=7 note=57 velocity=20 time=32\n",
      "note_on channel=7 note=49 velocity=76 time=3\n",
      "note_on channel=7 note=57 velocity=0 time=4\n",
      "note_on channel=7 note=49 velocity=0 time=63\n",
      "note_on channel=7 note=57 velocity=0 time=0\n",
      "note_on channel=7 note=50 velocity=75 time=26\n",
      "note_on channel=7 note=57 velocity=65 time=2\n",
      "note_on channel=7 note=57 velocity=47 time=48\n",
      "note_on channel=7 note=52 velocity=75 time=3\n",
      "note_on channel=7 note=57 velocity=0 time=2\n",
      "note_on channel=7 note=50 velocity=0 time=38\n",
      "note_on channel=7 note=57 velocity=0 time=202\n",
      "note_on channel=7 note=52 velocity=0 time=3\n",
      "note_on channel=7 note=50 velocity=103 time=185\n",
      "note_on channel=7 note=50 velocity=0 time=43\n",
      "note_on channel=7 note=51 velocity=62 time=4\n",
      "note_on channel=7 note=54 velocity=69 time=45\n",
      "note_on channel=7 note=54 velocity=0 time=50\n",
      "note_on channel=7 note=57 velocity=40 time=1\n",
      "note_on channel=7 note=61 velocity=70 time=43\n",
      "note_on channel=7 note=61 velocity=0 time=45\n",
      "note_on channel=7 note=57 velocity=0 time=3\n",
      "note_on channel=7 note=59 velocity=64 time=45\n",
      "note_on channel=7 note=56 velocity=57 time=3\n",
      "note_on channel=7 note=56 velocity=0 time=53\n",
      "note_on channel=7 note=59 velocity=0 time=0\n",
      "note_on channel=7 note=54 velocity=75 time=46\n",
      "note_on channel=7 note=57 velocity=65 time=0\n",
      "note_on channel=7 note=51 velocity=0 time=5\n",
      "note_on channel=7 note=57 velocity=0 time=38\n",
      "note_on channel=7 note=54 velocity=0 time=0\n",
      "note_on channel=7 note=55 velocity=79 time=53\n",
      "note_on channel=7 note=58 velocity=73 time=2\n",
      "note_on channel=7 note=55 velocity=0 time=51\n",
      "note_on channel=7 note=58 velocity=0 time=2\n",
      "note_on channel=7 note=64 velocity=75 time=41\n",
      "note_on channel=7 note=56 velocity=67 time=48\n",
      "note_on channel=7 note=56 velocity=0 time=38\n",
      "note_on channel=7 note=56 velocity=59 time=58\n",
      "note_on channel=7 note=56 velocity=0 time=48\n",
      "note_on channel=7 note=59 velocity=60 time=3\n",
      "note_on channel=7 note=59 velocity=0 time=43\n",
      "note_on channel=7 note=64 velocity=0 time=10\n",
      "note_on channel=7 note=64 velocity=65 time=39\n",
      "note_on channel=7 note=64 velocity=0 time=51\n",
      "note_on channel=7 note=68 velocity=91 time=41\n",
      "note_on channel=7 note=64 velocity=26 time=61\n",
      "note_on channel=7 note=68 velocity=0 time=1\n",
      "note_on channel=7 note=71 velocity=77 time=38\n",
      "note_on channel=7 note=64 velocity=0 time=4\n",
      "note_on channel=7 note=71 velocity=0 time=62\n",
      "note_on channel=7 note=66 velocity=74 time=31\n",
      "note_on channel=7 note=71 velocity=61 time=0\n",
      "note_on channel=7 note=68 velocity=35 time=15\n",
      "note_on channel=7 note=66 velocity=0 time=4\n",
      "note_on channel=7 note=66 velocity=58 time=79\n",
      "note_on channel=7 note=68 velocity=0 time=13\n",
      "note_on channel=7 note=66 velocity=0 time=38\n",
      "note_on channel=7 note=71 velocity=0 time=19\n",
      "note_on channel=7 note=64 velocity=75 time=31\n",
      "note_on channel=7 note=64 velocity=0 time=50\n",
      "note_on channel=7 note=61 velocity=68 time=41\n",
      "note_on channel=7 note=56 velocity=59 time=49\n",
      "note_on channel=7 note=61 velocity=0 time=5\n",
      "note_on channel=7 note=56 velocity=0 time=38\n",
      "note_on channel=7 note=55 velocity=97 time=50\n",
      "note_on channel=7 note=55 velocity=0 time=43\n",
      "note_on channel=7 note=54 velocity=51 time=8\n",
      "note_on channel=7 note=54 velocity=0 time=43\n",
      "note_on channel=7 note=52 velocity=29 time=9\n",
      "note_on channel=7 note=52 velocity=0 time=15\n",
      "note_on channel=7 note=56 velocity=63 time=0\n",
      "note_on channel=7 note=64 velocity=74 time=0\n",
      "note_on channel=7 note=64 velocity=0 time=21\n",
      "note_on channel=7 note=56 velocity=0 time=3\n",
      "note_on channel=7 note=63 velocity=59 time=16\n",
      "note_on channel=7 note=54 velocity=47 time=0\n",
      "note_on channel=7 note=54 velocity=0 time=23\n",
      "note_on channel=7 note=63 velocity=0 time=2\n",
      "note_on channel=7 note=61 velocity=53 time=0\n",
      "note_on channel=7 note=52 velocity=45 time=0\n",
      "note_on channel=7 note=52 velocity=0 time=59\n",
      "note_on channel=7 note=61 velocity=0 time=4\n",
      "note_on channel=7 note=57 velocity=87 time=164\n",
      "note_on channel=7 note=57 velocity=0 time=30\n",
      "note_on channel=7 note=56 velocity=28 time=7\n",
      "note_on channel=7 note=56 velocity=0 time=29\n",
      "note_on channel=7 note=54 velocity=38 time=0\n",
      "note_on channel=7 note=61 velocity=68 time=38\n",
      "note_on channel=7 note=54 velocity=0 time=10\n",
      "note_on channel=7 note=61 velocity=0 time=20\n",
      "note_on channel=7 note=59 velocity=31 time=1\n",
      "note_on channel=7 note=57 velocity=44 time=27\n",
      "note_on channel=7 note=59 velocity=0 time=5\n",
      "note_on channel=7 note=66 velocity=84 time=27\n",
      "note_on channel=7 note=57 velocity=0 time=18\n",
      "note_on channel=7 note=66 velocity=0 time=14\n",
      "note_on channel=7 note=61 velocity=46 time=5\n",
      "note_on channel=7 note=61 velocity=0 time=29\n",
      "note_on channel=7 note=59 velocity=51 time=3\n",
      "note_on channel=7 note=57 velocity=85 time=30\n",
      "note_on channel=7 note=59 velocity=0 time=20\n",
      "note_on channel=7 note=59 velocity=62 time=30\n",
      "note_on channel=7 note=57 velocity=0 time=14\n",
      "note_on channel=7 note=61 velocity=77 time=34\n",
      "note_on channel=7 note=59 velocity=0 time=8\n",
      "note_on channel=7 note=57 velocity=74 time=37\n",
      "note_on channel=7 note=54 velocity=58 time=48\n",
      "note_on channel=7 note=54 velocity=0 time=25\n",
      "note_on channel=7 note=57 velocity=0 time=19\n",
      "note_on channel=7 note=61 velocity=0 time=3\n",
      "note_on channel=7 note=59 velocity=63 time=124\n",
      "note_on channel=7 note=62 velocity=70 time=41\n",
      "note_on channel=7 note=63 velocity=67 time=47\n",
      "note_on channel=7 note=62 velocity=0 time=4\n",
      "note_on channel=7 note=59 velocity=0 time=10\n",
      "note_on channel=7 note=66 velocity=70 time=37\n",
      "note_on channel=7 note=63 velocity=0 time=8\n",
      "note_on channel=7 note=66 velocity=0 time=37\n",
      "note_on channel=7 note=68 velocity=74 time=0\n",
      "note_on channel=7 note=66 velocity=51 time=52\n",
      "note_on channel=7 note=68 velocity=0 time=14\n",
      "note_on channel=7 note=66 velocity=0 time=24\n",
      "note_on channel=7 note=71 velocity=65 time=9\n",
      "note_on channel=7 note=71 velocity=0 time=48\n",
      "note_on channel=7 note=68 velocity=80 time=48\n",
      "note_on channel=7 note=66 velocity=73 time=45\n",
      "note_on channel=7 note=68 velocity=0 time=16\n",
      "note_on channel=7 note=66 velocity=0 time=94\n",
      "note_on channel=7 note=68 velocity=77 time=22\n",
      "note_on channel=7 note=66 velocity=63 time=22\n",
      "note_on channel=7 note=68 velocity=0 time=2\n",
      "note_on channel=7 note=66 velocity=0 time=22\n",
      "note_on channel=7 note=68 velocity=48 time=4\n",
      "note_on channel=7 note=68 velocity=0 time=35\n",
      "note_on channel=7 note=66 velocity=11 time=0\n",
      "note_on channel=7 note=64 velocity=72 time=33\n",
      "note_on channel=7 note=66 velocity=0 time=31\n",
      "note_on channel=7 note=64 velocity=0 time=89\n",
      "note_on channel=7 note=70 velocity=88 time=215\n",
      "note_on channel=7 note=70 velocity=0 time=40\n",
      "note_on channel=7 note=71 velocity=38 time=8\n",
      "note_on channel=7 note=74 velocity=25 time=30\n",
      "note_on channel=7 note=71 velocity=0 time=5\n",
      "note_on channel=7 note=74 velocity=0 time=16\n",
      "note_on channel=7 note=76 velocity=73 time=3\n",
      "note_on channel=7 note=73 velocity=65 time=39\n",
      "note_on channel=7 note=76 velocity=0 time=1\n",
      "note_on channel=7 note=76 velocity=65 time=52\n",
      "note_on channel=7 note=73 velocity=0 time=35\n",
      "note_on channel=7 note=73 velocity=53 time=41\n",
      "note_on channel=7 note=71 velocity=76 time=60\n",
      "note_on channel=7 note=68 velocity=77 time=0\n",
      "note_on channel=7 note=73 velocity=0 time=14\n",
      "note_on channel=7 note=64 velocity=30 time=46\n",
      "note_on channel=7 note=68 velocity=0 time=7\n",
      "note_on channel=7 note=71 velocity=0 time=3\n",
      "note_on channel=7 note=64 velocity=0 time=24\n",
      "note_on channel=7 note=71 velocity=61 time=6\n",
      "note_on channel=7 note=66 velocity=71 time=2\n",
      "note_on channel=7 note=71 velocity=0 time=41\n",
      "note_on channel=7 note=66 velocity=0 time=9\n",
      "note_on channel=7 note=64 velocity=30 time=3\n",
      "note_on channel=7 note=64 velocity=0 time=34\n",
      "note_on channel=7 note=66 velocity=68 time=4\n",
      "note_on channel=7 note=71 velocity=65 time=2\n",
      "note_on channel=7 note=76 velocity=0 time=15\n",
      "note_on channel=7 note=68 velocity=62 time=2\n",
      "note_on channel=7 note=66 velocity=0 time=3\n",
      "note_on channel=7 note=71 velocity=0 time=28\n",
      "note_on channel=7 note=68 velocity=0 time=7\n",
      "note_on channel=7 note=66 velocity=80 time=38\n",
      "note_on channel=7 note=71 velocity=60 time=1\n",
      "note_on channel=7 note=71 velocity=0 time=53\n",
      "note_on channel=7 note=64 velocity=34 time=0\n",
      "note_on channel=7 note=66 velocity=0 time=7\n",
      "note_on channel=7 note=64 velocity=0 time=27\n",
      "note_on channel=7 note=66 velocity=71 time=4\n",
      "note_on channel=7 note=71 velocity=62 time=5\n",
      "note_on channel=7 note=68 velocity=39 time=13\n",
      "note_on channel=7 note=66 velocity=0 time=11\n",
      "note_on channel=7 note=71 velocity=0 time=26\n",
      "note_on channel=7 note=68 velocity=0 time=5\n",
      "note_on channel=7 note=66 velocity=76 time=40\n",
      "note_on channel=7 note=71 velocity=62 time=0\n",
      "note_on channel=7 note=64 velocity=57 time=51\n",
      "note_on channel=7 note=66 velocity=0 time=13\n",
      "note_on channel=7 note=64 velocity=0 time=173\n",
      "note_on channel=7 note=71 velocity=0 time=16\n",
      "note_on channel=7 note=69 velocity=91 time=13\n",
      "note_on channel=7 note=64 velocity=93 time=2\n",
      "note_on channel=7 note=69 velocity=0 time=43\n",
      "note_on channel=7 note=69 velocity=59 time=6\n",
      "note_on channel=7 note=66 velocity=78 time=2\n",
      "note_on channel=7 note=64 velocity=0 time=3\n",
      "note_on channel=7 note=66 velocity=0 time=35\n",
      "note_on channel=7 note=64 velocity=79 time=7\n",
      "note_on channel=7 note=64 velocity=0 time=20\n",
      "note_on channel=7 note=69 velocity=0 time=7\n",
      "note_on channel=7 note=64 velocity=77 time=58\n",
      "note_on channel=7 note=59 velocity=77 time=2\n",
      "note_on channel=7 note=61 velocity=40 time=22\n",
      "note_on channel=7 note=59 velocity=0 time=2\n",
      "note_on channel=7 note=64 velocity=0 time=24\n",
      "note_on channel=7 note=61 velocity=0 time=4\n",
      "note_on channel=7 note=64 velocity=48 time=9\n",
      "note_on channel=7 note=59 velocity=63 time=0\n",
      "note_on channel=7 note=57 velocity=65 time=32\n",
      "note_on channel=7 note=59 velocity=0 time=18\n",
      "note_on channel=7 note=64 velocity=0 time=24\n",
      "note_on channel=7 note=57 velocity=0 time=8\n",
      "note_on channel=7 note=59 velocity=67 time=33\n",
      "note_on channel=7 note=56 velocity=28 time=57\n",
      "note_on channel=7 note=59 velocity=0 time=37\n",
      "note_on channel=7 note=57 velocity=74 time=7\n",
      "note_on channel=7 note=56 velocity=0 time=7\n",
      "note_on channel=7 note=54 velocity=52 time=41\n",
      "note_on channel=7 note=57 velocity=0 time=14\n",
      "note_on channel=7 note=54 velocity=0 time=64\n",
      "note_on channel=7 note=50 velocity=60 time=6\n",
      "note_on channel=7 note=58 velocity=53 time=2\n",
      "note_on channel=7 note=50 velocity=0 time=48\n",
      "note_on channel=7 note=58 velocity=0 time=51\n",
      "note_on channel=7 note=51 velocity=42 time=5\n",
      "note_on channel=7 note=59 velocity=59 time=17\n",
      "note_on channel=7 note=51 velocity=0 time=426\n",
      "note_on channel=7 note=59 velocity=0 time=1\n",
      "note_on channel=7 note=64 velocity=92 time=47\n",
      "note_on channel=7 note=56 velocity=81 time=0\n",
      "note_on channel=7 note=56 velocity=0 time=19\n",
      "note_on channel=7 note=64 velocity=0 time=2\n",
      "note_on channel=7 note=64 velocity=92 time=76\n",
      "note_on channel=7 note=56 velocity=81 time=0\n",
      "note_on channel=7 note=64 velocity=0 time=28\n",
      "note_on channel=7 note=56 velocity=0 time=8\n",
      "note_on channel=7 note=62 velocity=74 time=69\n",
      "note_on channel=7 note=59 velocity=70 time=7\n",
      "note_on channel=7 note=57 velocity=84 time=30\n",
      "note_on channel=7 note=59 velocity=0 time=13\n",
      "note_on channel=7 note=55 velocity=58 time=9\n",
      "note_on channel=7 note=57 velocity=0 time=7\n",
      "note_on channel=7 note=55 velocity=0 time=379\n",
      "note_on channel=7 note=62 velocity=0 time=35\n",
      "note_on channel=7 note=57 velocity=55 time=10\n",
      "note_on channel=7 note=62 velocity=78 time=41\n",
      "note_on channel=7 note=57 velocity=0 time=10\n",
      "note_on channel=7 note=57 velocity=30 time=53\n",
      "note_on channel=7 note=62 velocity=0 time=11\n",
      "note_on channel=7 note=66 velocity=79 time=29\n",
      "note_on channel=7 note=57 velocity=0 time=8\n",
      "note_on channel=7 note=57 velocity=44 time=45\n",
      "note_on channel=7 note=66 velocity=0 time=9\n",
      "note_on channel=7 note=69 velocity=58 time=32\n",
      "note_on channel=7 note=57 velocity=0 time=10\n",
      "note_on channel=7 note=69 velocity=0 time=57\n"
     ]
    },
    {
     "data": {
      "image/png": "iVBORw0KGgoAAAANSUhEUgAAFe4AAAAqCAYAAABrNg8JAAAABHNCSVQICAgIfAhkiAAAAAlwSFlzAAALEgAACxIB0t1+/AAAADh0RVh0U29mdHdhcmUAbWF0cGxvdGxpYiB2ZXJzaW9uMy4yLjAsIGh0dHA6Ly9tYXRwbG90bGliLm9yZy8GearUAAALLklEQVR4nO3dXYjld3kH8O8zu2pF2258S5dsaAJNWtILo1liigoxYkxfaHohNlLqUkLnQkMUStroTVLTC72JVmhLh1aMoXZdbINBWu2ill6pMTVWk7h1zAvusrrE3WikoG769OL8NhyWXXd2d+acmdPPB4bz/z3/t2dgrr7M7znV3QEAAAAAAAAAAAAAAAAAAAAAAAAAAAAmlubdAAAAAAAAAAAAAAAAAAAAAAAAAAAAAGwmBvcCAAAAAAAAAAAAAAAAAAAAAAAAAADAFIN7AQAAAAAAAAAAAAAAAAAAAAAAAAAAYIrBvQAAAAAAAAAAAAAAAAAAAAAAAAAAADDF4F4AAAAAAAAAAAAAAAAAAAAAAAAAAACYYnAvAAAAAAAAAAAAAAAAAAAAAAAAAAAATDmvwb1VdUNVHaiq1aq6fb2aAgAAAAAAAAAAAAAAAAAAAAAAAAAAgHmp7j63G6u2JfnvJG9KcjDJA0ne1t2PrF97AAAAAAAAAAAAAAAAAAAAAAAAAAAAMFtL53Hv1UlWu/ux7v5Jkr1JblyftgAAAAAAAAAAAAAAAAAAAAAAAAAAAGA+tp/HvRcl+c7U+mCS15x8UVUtJ1key6vO430AAAAAAAAAAAAAAAAAAAAAAAAAAACwXp7q7pef6sT5DO5dk+5eSbKSJFXVG/0+AAAAAAAAAAAAAAAAAAAAAAAAAAAAWIMnT3di6TweeijJxVPrXaMGAAAAAAAAAAAAAAAAAAAAAAAAAAAAW9b2tVxUVU8keSbJs0mOd/fuJKtJXl9Vjyf5dpJfSvL7G9QnAAAAAAAAAAAAAAAAAAAAAAAAAAAAzMTSWVz7hu6+cgztTZLbknwiyU+TvCrJ0e5+eL0bBAAAAAAAWKs777xz3i0AW9C+ffvm3QIslHvvvXfeLWw6t95667xbgIVw+eWXz7sFeM5tt9027xZg4ezdu3feLQDAQrjlllvm3QIAAOvgrrvumncLAAAAAADAArr77rvn3QJsOdXdZ76o6okku7v7qanagSTXdvfhqtqZ5N+7+1fP8JwzvwwAAAAAAAAAAAAAAAAAAAAAAAAA4CwtLy9nZWVl3m0AsLU82N27T3VirYN7H09yLEkn+dvuXqmqp7t7xzhfSY6dWJ9073KS5bG86hx/AQAAAAAAAAAAAAAAAAAAAAAAAAAAAFhPpx3cu32ND3hddx+qqlck2V9V35w+2d1dVaecANzdK0lWkuR01wAAAAAAAAAAAAAAAAAAAAAAAAAAAMBmsabBvd19aHweqar7klyd5HtVtbO7D1fVziRH1vCoHyU5cM7dAgAAAGxeL0vy1LybAAAAANggsg8AAABgUck9AAAAgEUm+wAAAAAWldyD9fTLpztxxsG9VfWiJEvd/cw4vj7J+5Lcn2RPkvePz0+toZED3b17TS0DAAAAbCFV9RW5BwAAALCoZB8AAADAopJ7AAAAAItM9gEAAAAsKrkHs3LGwb1JLkxyX1WduP7j3f2Zqnogyb6qujnJk0neunFtAgAAAAAAAAAAAAAAAAAAAAAAAAAAwGyccXBvdz+W5JWnqH8/yRs3oikAAAAAAAAAAAAAAAAAAAAAAAAAAACYl6UZv29lxu8DAAAAmBW5BwAAALDIZB8AAADAopJ7AAAAAItM9gEAAAAsKrkHM1HdPe8eAAAAAAAAAAAAAAAAAAAAAAAAAAAAYNNYmncDAAAAAAAAAAAAAAAAAAAAAAAAAAAAsJkY3AsAAAAAAAAAAAAAAAAAAAAAAAAAAABTZjK4t6puqKoDVbVaVbfP4p0AAAAA56KqPlJVR6rqG1O1l1TV/qr61vi8YNSrqj48Mo//qqpXT92zZ1z/raraM1W/qqq+Pu75cFXVbH9DAAAA4P+rqrq4qr5QVY9U1cNV9a5Rl30AAAAAW1pV/VxVfbmqvjZyjz8f9Uur6ksjq/hEVT1/1F8w1qvj/CVTz3rPqB+oqjdP1e2NAQAAAOamqrZV1Ver6tNjLfcAAAAAFkJVPTH2ojxUVV8ZNXtd2DQ2fHBvVW1L8ldJfjPJFUneVlVXbPR7AQAAAM7RR5PccFLt9iSf6+7LknxurJNJ3nHZ+FlO8jfJJABMckeS1yS5OskdJ0LAcc0fT9138rsAAAAANsrxJH/S3VckuSbJO8f/cMg+AAAAgK3ux0mu6+5XJrkyyQ1VdU2SDyT5YHf/SpJjSW4e19+c5Niof3Bcl5GV3JTk1zPJNf56DMWxNwYAAACYt3cleXRqLfcAAAAAFskbuvvK7t491va6sGls+ODeTP5oV7v7se7+SZK9SW6cwXsBAAAAzlp3/0eSoyeVb0xyzzi+J8nvTdU/1hNfTLKjqnYmeXOS/d19tLuPJdmfyYawnUl+obu/2N2d5GNTzwIAAADYUN19uLv/cxw/k8lmrosi+wAAAAC2uJFf/Ggsnzd+Osl1ST456ifnHifykE8meWNV1ajv7e4fd/fjSVYz2RdjbwwAAAAwN1W1K8lvJ/m7sa7IPQAAAIDFZq8Lm8YsBvdelOQ7U+uDowYAAACwVVzY3YfH8XeTXDiOT5d7/Kz6wVPUAQAAAGaqqi5J8qokX4rsAwAAAFgAVbWtqh5KciSTzVffTvJ0dx8fl0xnFc/lG+P8D5K8NGefhwAAAADMwoeS/GmS/x3rl0buAQAAACyOTvJvVfVgVS2Pmr0ubBrb590AAAAAwFbS3V1VPe8+AAAAAM5VVb04yT8leXd3/7Cqnjsn+wAAAAC2qu5+NsmVVbUjyX1Jfm3OLQEAAACct6r6nSRHuvvBqrp23v0AAAAAbIDXdfehqnpFkv1V9c3pk/a6MG9LM3jHoSQXT613jRoAAADAVvG9qtqZJOPzyKifLvf4WfVdp6gDAAAAzERVPS+Tob3/0N3/PMqyDwAAAGBhdPfTSb6Q5DeS7Kiq7ePUdFbxXL4xzv9iku/n7PMQAAAAgI322iS/W1VPJNmb5Lokfxm5BwAAALAguvvQ+DySyZc1Xx17XdhEZjG494Ekl1XVpVX1/CQ3Jbl/Bu8FAAAAWC/3J9kzjvck+dRU/e01cU2SH3T34SSfTXJ9VV1QVRckuT7JZ8e5H1bVNVVVSd4+9SwAAACADTXyiL9P8mh33z11SvYBAAAAbGlV9fKq2jGOX5jkTUkezWSA71vGZSfnHifykLck+Xx396jfVFUvqKpLk1yW5MuxNwYAAACYk+5+T3fv6u5LMskkPt/dfxC5BwAAALAAqupFVfXzJ44z2aPyjdjrwiay/cyXnJ/uPl5Vt2Tyh7wtyUe6++GNfi8AAADAuaiqf0xybZKXVdXBJHckeX+SfVV1c5Ink7x1XP4vSX4ryWqS/0nyR0nS3Uer6q5M/nkpSd7X3UfH8TuSfDTJC5P86/gBAAAAmIXXJvnDJF+vqodG7b2RfQAAAABb384k91TVtiRLSfZ196er6pEke6vqL5J8NZMvNcr4vLeqVpMczWQgTbr74aral+SRJMeTvLO7n00Se2MAAACATebPIvcAAAAAtr4Lk9w3mamb7Uk+3t2fqaoHYq8Lm0RNvhgLAAAAAAAAAAAAAAAAAAAAAAAAAAAASCbfIg4AAAAAAAAAAAAAAAAAAAAAAAAAAAAMBvcCAAAAAAAAAAAAAAAAAAAAAAAAAADAFIN7AQAAAAAAAAAAAAAAAAAAAAAAAAAAYIrBvQAAAAAAAAAAAAAAAAAAAAAAAAAAADDF4F4AAAAAAAAAAAAAAAAAAAAAAAAAAACYYnAvAAAAAAAAAAAAAAAAAAAAAAAAAAAATDG4FwAAAAAAAAAAAAAAAAAAAAAAAAAAAKb8H7+3rEtQ2ZjhAAAAAElFTkSuQmCC\n",
      "text/plain": [
       "<Figure size 7200x21600 with 1 Axes>"
      ]
     },
     "metadata": {
      "needs_background": "light"
     },
     "output_type": "display_data"
    }
   ],
   "source": [
    "def track_to_image(track, length):\n",
    "    time_step = 0\n",
    "    image = [ [-1]*length for _ in range(70) ]\n",
    "    for msg in track:\n",
    "        if msg.type == \"note_on\":\n",
    "            time_step = time_step + msg.time\n",
    "            image[msg.note-20][time_step] = msg.velocity\n",
    "            print(msg)\n",
    "    return image\n",
    "\n",
    "def test_track_to_image(initial_path):\n",
    "    song = mido.MidiFile(initial_path + \"american_hiway40blues.mid\")\n",
    "    track = song.tracks[0]\n",
    "    le = 1\n",
    "    for msg in track:\n",
    "        if msg.type == \"note_on\":\n",
    "            le = le + msg.time\n",
    "    image = track_to_image(track, le)\n",
    "    x = [row[:500] for row in image]\n",
    "    plt.figure(figsize=(100,300))\n",
    "    plt.imshow(image, cmap='gray', interpolation='nearest', vmin=0, vmax=120)\n",
    "    plt.show()\n",
    "test_track_to_image(initial_path)"
   ]
  },
  {
   "cell_type": "code",
   "execution_count": 10,
   "metadata": {},
   "outputs": [],
   "source": [
    "def create_image_from_mid(mid):\n",
    "    guitar_image = create_image_from_track(mid.tracks[0])\n",
    "    bass_image = create_image_from_track(mid.tracks[1])\n",
    "    # combine ima\n",
    "    pass"
   ]
  },
  {
   "cell_type": "code",
   "execution_count": 11,
   "metadata": {},
   "outputs": [],
   "source": [
    "def split_image(image, size, stride):\n",
    "    pass"
   ]
  },
  {
   "cell_type": "code",
   "execution_count": 13,
   "metadata": {},
   "outputs": [],
   "source": [
    "def create_images(initial_path, end_path):\n",
    "    pass"
   ]
  },
  {
   "cell_type": "code",
   "execution_count": 14,
   "metadata": {},
   "outputs": [],
   "source": [
    "def create_midi_from_image(image):\n",
    "    pass"
   ]
  },
  {
   "cell_type": "code",
   "execution_count": null,
   "metadata": {},
   "outputs": [],
   "source": [
    "def create_midis(images_path, midi_out_path):"
   ]
  }
 ],
 "metadata": {
  "kernelspec": {
   "display_name": "Python 3.7.4 64-bit ('dissertation': venv)",
   "language": "python",
   "name": "python37464bitdissertationvenv4d27c5bea19f4b9c854c53475dba7980"
  },
  "language_info": {
   "codemirror_mode": {
    "name": "ipython",
    "version": 3
   },
   "file_extension": ".py",
   "mimetype": "text/x-python",
   "name": "python",
   "nbconvert_exporter": "python",
   "pygments_lexer": "ipython3",
   "version": "3.7.4"
  }
 },
 "nbformat": 4,
 "nbformat_minor": 4
}
